<svg width="62" height="62" viewBox="0 0 62 62" xmlns="http://www.w3.org/2000/svg"><title>635FC9B1-D611-4429-A491-BC4BE2D5D1FA</title><g transform="translate(1 1)" stroke-width="2" fill="none" fill-rule="evenodd"><circle stroke="#0065EE" stroke-linecap="square" cx="30" cy="30" r="14"/><circle stroke="#0065EE" stroke-linecap="square" cx="30" cy="30" r="28"/><path d="M24 17.347V2.644m12 0v14.703M42.653 24h14.703m0 12H42.653M36 42.653v14.703m-12 0V42.653M17.347 36H2.644m0-12h14.703" stroke="#0065EE"/><path d="M0 14C0 6.268 6.268 0 14 0m32 0c7.732 0 14 6.268 14 14m0 32c0 7.732-6.268 14-14 14m-32 0C6.268 60 0 53.732 0 46" stroke="#ABAFB4" stroke-linecap="square"/></g></svg>